<svg width="36" height="36" viewBox="0 0 36 36" fill="none" xmlns="http://www.w3.org/2000/svg">
<path fill-rule="evenodd" clip-rule="evenodd" d="M28.6497 28.74C29.5347 27.39 29.8647 26.7 30.5397 25.185C25.5597 23.295 24.7647 16.2 29.6847 13.485C28.1847 11.595 26.0698 10.5 24.0748 10.5C22.6348 10.5 21.6447 10.875 20.7597 11.22C20.0097 11.505 19.3348 11.76 18.4948 11.76C17.5948 11.76 16.7997 11.475 15.9597 11.175C15.0597 10.845 14.0997 10.5 12.8997 10.5C10.6647 10.5 8.27975 11.865 6.76475 14.205C4.63475 17.505 5.00974 23.685 8.44474 28.965C9.67474 30.855 11.3248 32.97 13.4698 33C14.3698 33.015 14.9548 32.745 15.5998 32.46C16.3348 32.13 17.1297 31.77 18.5247 31.77C19.9197 31.755 20.6997 32.13 21.4347 32.46C22.0647 32.745 22.6347 33.015 23.5197 33C25.6797 32.97 27.4197 30.63 28.6497 28.74Z" fill="white"/>
<path opacity="0.4" fill-rule="evenodd" clip-rule="evenodd" d="M23.7597 3C23.9997 4.65 23.3247 6.285 22.4397 7.425C21.4947 8.655 19.8447 9.615 18.2547 9.555C17.9697 7.965 18.7047 6.33 19.6047 5.235C20.6097 4.035 22.3047 3.105 23.7597 3Z" fill="white"/>
</svg>
