<svg width="36" height="36" viewBox="0 0 36 36" fill="none" xmlns="http://www.w3.org/2000/svg">
<path opacity="0.4" d="M24.2846 3H11.7296C6.26964 3 3.01465 6.255 3.01465 11.715V24.27C3.01465 29.73 6.26964 32.985 11.7296 32.985H24.2846C29.7446 32.985 32.9996 29.73 32.9996 24.27V11.715C32.9996 6.255 29.7446 3 24.2846 3Z" fill="white"/>
<path d="M18.2997 26.0699C17.2497 26.0699 16.1846 25.6649 15.3896 24.8699C14.6096 24.0899 14.1747 23.0549 14.1747 21.9599C14.1747 20.8649 14.6096 19.8149 15.3896 19.0499L17.5046 16.9349C17.9396 16.4999 18.6596 16.4999 19.0946 16.9349C19.5296 17.3699 19.5296 18.0899 19.0946 18.5249L16.9796 20.6399C16.6196 20.9999 16.4247 21.4649 16.4247 21.9599C16.4247 22.4549 16.6196 22.9349 16.9796 23.2799C17.7146 24.0149 18.8997 24.0149 19.6347 23.2799L22.9646 19.9499C24.8696 18.0449 24.8696 14.9549 22.9646 13.0499C21.0596 11.1449 17.9697 11.1449 16.0647 13.0499L12.4346 16.6799C11.6696 17.4449 11.2496 18.4499 11.2496 19.5149C11.2496 20.5799 11.6696 21.5999 12.4346 22.3499C12.8696 22.7849 12.8696 23.5049 12.4346 23.9399C11.9996 24.3749 11.2796 24.3749 10.8446 23.9399C9.6596 22.7549 9.01465 21.1799 9.01465 19.4999C9.01465 17.8199 9.6596 16.2449 10.8446 15.0599L14.4747 11.4299C17.2497 8.65488 21.7796 8.65488 24.5546 11.4299C27.3296 14.2049 27.3296 18.7349 24.5546 21.5099L21.2247 24.8399C20.4147 25.6649 19.3647 26.0699 18.2997 26.0699Z" fill="white"/>
</svg>
