<svg width="37" height="36" viewBox="0 0 37 36" fill="none" xmlns="http://www.w3.org/2000/svg">
<path d="M25.7918 5.34V3C25.7918 2.385 25.2818 1.875 24.6668 1.875C24.0518 1.875 23.5418 2.385 23.5418 3V5.25H13.7918V3C13.7918 2.385 13.2818 1.875 12.6668 1.875C12.0518 1.875 11.5418 2.385 11.5418 3V5.34C7.49185 5.715 5.52685 8.13 5.22685 11.715C5.19685 12.15 5.55685 12.51 5.97685 12.51H31.3568C31.7918 12.51 32.1518 12.135 32.1068 11.715C31.8068 8.13 29.8418 5.715 25.7918 5.34Z" fill="#19C295"/>
<path opacity="0.4" d="M30.667 14.76C31.492 14.76 32.167 15.435 32.167 16.26V25.5C32.167 30 29.917 33 24.667 33H12.667C7.41699 33 5.16699 30 5.16699 25.5V16.26C5.16699 15.435 5.84199 14.76 6.66699 14.76H30.667Z" fill="#19C295"/>
<path d="M13.417 22.5001C13.027 22.5001 12.637 22.335 12.352 22.065C12.082 21.78 11.917 21.3901 11.917 21.0001C11.917 20.6101 12.082 20.2201 12.352 19.9351C12.772 19.5151 13.432 19.38 13.987 19.62C14.182 19.695 14.347 19.8001 14.482 19.9351C14.752 20.2201 14.917 20.6101 14.917 21.0001C14.917 21.3901 14.752 21.78 14.482 22.065C14.197 22.335 13.807 22.5001 13.417 22.5001Z" fill="#19C295"/>
<path d="M18.667 22.5001C18.277 22.5001 17.887 22.335 17.602 22.065C17.332 21.78 17.167 21.3901 17.167 21.0001C17.167 20.6101 17.332 20.2201 17.602 19.9351C17.737 19.8001 17.902 19.695 18.097 19.62C18.652 19.38 19.312 19.5151 19.732 19.9351C20.002 20.2201 20.167 20.6101 20.167 21.0001C20.167 21.3901 20.002 21.78 19.732 22.065C19.657 22.125 19.582 22.185 19.507 22.245C19.417 22.305 19.327 22.3501 19.237 22.3801C19.147 22.4251 19.057 22.4551 18.967 22.4701C18.862 22.4851 18.772 22.5001 18.667 22.5001Z" fill="#19C295"/>
<path d="M23.917 22.5C23.527 22.5 23.137 22.335 22.852 22.065C22.582 21.78 22.417 21.39 22.417 21C22.417 20.61 22.582 20.22 22.852 19.935C23.002 19.8 23.152 19.695 23.347 19.62C23.617 19.5 23.917 19.47 24.217 19.53C24.307 19.545 24.397 19.575 24.487 19.62C24.577 19.65 24.667 19.695 24.757 19.755C24.832 19.815 24.907 19.875 24.982 19.935C25.252 20.22 25.417 20.61 25.417 21C25.417 21.39 25.252 21.78 24.982 22.065C24.907 22.125 24.832 22.185 24.757 22.245C24.667 22.305 24.577 22.35 24.487 22.38C24.397 22.425 24.307 22.455 24.217 22.47C24.112 22.485 24.007 22.5 23.917 22.5Z" fill="#19C295"/>
<path d="M13.417 27.75C13.222 27.75 13.027 27.705 12.847 27.63C12.652 27.555 12.502 27.45 12.352 27.315C12.082 27.03 11.917 26.64 11.917 26.25C11.917 25.86 12.082 25.47 12.352 25.185C12.502 25.05 12.652 24.945 12.847 24.87C13.117 24.75 13.417 24.72 13.717 24.78C13.807 24.795 13.897 24.825 13.987 24.87C14.077 24.9 14.167 24.945 14.257 25.005C14.332 25.065 14.407 25.125 14.482 25.185C14.752 25.47 14.917 25.86 14.917 26.25C14.917 26.64 14.752 27.03 14.482 27.315C14.407 27.375 14.332 27.45 14.257 27.495C14.167 27.555 14.077 27.6 13.987 27.63C13.897 27.675 13.807 27.705 13.717 27.72C13.612 27.735 13.522 27.75 13.417 27.75Z" fill="#19C295"/>
<path d="M18.667 27.75C18.277 27.75 17.887 27.585 17.602 27.315C17.332 27.03 17.167 26.64 17.167 26.25C17.167 25.86 17.332 25.47 17.602 25.185C18.157 24.63 19.177 24.63 19.732 25.185C20.002 25.47 20.167 25.86 20.167 26.25C20.167 26.64 20.002 27.03 19.732 27.315C19.447 27.585 19.057 27.75 18.667 27.75Z" fill="#19C295"/>
<path d="M23.917 27.75C23.527 27.75 23.137 27.585 22.852 27.315C22.582 27.03 22.417 26.64 22.417 26.25C22.417 25.86 22.582 25.47 22.852 25.185C23.407 24.63 24.427 24.63 24.982 25.185C25.252 25.47 25.417 25.86 25.417 26.25C25.417 26.64 25.252 27.03 24.982 27.315C24.697 27.585 24.307 27.75 23.917 27.75Z" fill="#19C295"/>
</svg>
