<svg width="37" height="36" viewBox="0 0 37 36" fill="none" xmlns="http://www.w3.org/2000/svg">
<path opacity="0.4" d="M18.3333 33C26.6175 33 33.3333 26.2843 33.3333 18C33.3333 9.71573 26.6175 3 18.3333 3C10.049 3 3.33325 9.71573 3.33325 18C3.33325 26.2843 10.049 33 18.3333 33Z" fill="#DD43F0"/>
<path d="M23.8982 23.895C23.7032 23.895 23.5082 23.85 23.3282 23.73L18.6782 20.955C17.5232 20.265 16.6682 18.75 16.6682 17.415V11.265C16.6682 10.65 17.1782 10.14 17.7932 10.14C18.4082 10.14 18.9182 10.65 18.9182 11.265V17.415C18.9182 17.955 19.3682 18.75 19.8332 19.02L24.4832 21.795C25.0232 22.11 25.1882 22.8 24.8732 23.34C24.6482 23.7 24.2732 23.895 23.8982 23.895Z" fill="#DD43F0"/>
</svg>
