<svg width="36" height="36" viewBox="0 0 36 36" fill="none" xmlns="http://www.w3.org/2000/svg">
<path opacity="0.4" d="M25.5 30.75H10.5C6 30.75 3 28.5 3 23.25V12.75C3 7.5 6 5.25 10.5 5.25H25.5C30 5.25 33 7.5 33 12.75V23.25C33 28.5 30 30.75 25.5 30.75Z" fill="#8C72E2"/>
<path d="M18.0002 19.3049C16.7402 19.3049 15.4652 18.915 14.4902 18.12L9.79515 14.37C9.31515 13.98 9.22516 13.275 9.61516 12.795C10.0052 12.315 10.7102 12.225 11.1902 12.615L15.8851 16.365C17.0251 17.28 18.9601 17.28 20.1001 16.365L24.7952 12.615C25.2752 12.225 25.9952 12.3 26.3702 12.795C26.7602 13.275 26.6852 13.995 26.1902 14.37L21.4952 18.12C20.5352 18.915 19.2602 19.3049 18.0002 19.3049Z" fill="#8C72E2"/>
</svg>
