<svg width="36" height="36" viewBox="0 0 36 36" fill="none" xmlns="http://www.w3.org/2000/svg">
<path opacity="0.4" d="M24.285 3H11.715C6.255 3 3 6.255 3 11.715V24.27C3 29.745 6.255 33 11.715 33H24.27C29.73 33 32.985 29.745 32.985 24.285V11.715C33 6.255 29.745 3 24.285 3Z" fill="white"/>
<path d="M23.2502 15.1951C24.8076 15.1951 26.0702 13.9325 26.0702 12.3751C26.0702 10.8176 24.8076 9.55505 23.2502 9.55505C21.6927 9.55505 20.4302 10.8176 20.4302 12.3751C20.4302 13.9325 21.6927 15.1951 23.2502 15.1951Z" fill="white"/>
<path d="M12.7502 15.1951C14.3076 15.1951 15.5702 13.9325 15.5702 12.3751C15.5702 10.8176 14.3076 9.55505 12.7502 9.55505C11.1927 9.55505 9.93018 10.8176 9.93018 12.3751C9.93018 13.9325 11.1927 15.1951 12.7502 15.1951Z" fill="white"/>
<path d="M23.3998 19.38H12.5998C11.5498 19.38 10.6948 20.235 10.6948 21.3C10.6948 25.335 13.9798 28.62 18.0148 28.62C22.0498 28.62 25.3348 25.335 25.3348 21.3C25.3198 20.25 24.4498 19.38 23.3998 19.38Z" fill="white"/>
</svg>
