<svg width="36" height="36" viewBox="0 0 36 36" fill="none" xmlns="http://www.w3.org/2000/svg">
<path opacity="0.4" d="M18 33C26.2843 33 33 26.2843 33 18C33 9.71573 26.2843 3 18 3C9.71573 3 3 9.71573 3 18C3 26.2843 9.71573 33 18 33Z" fill="white"/>
<path d="M18.4949 25.5002C18.2249 25.5902 17.7599 25.5902 17.4899 25.5002C15.1499 24.7052 9.8999 21.3601 9.8999 15.6901C9.8999 13.1851 11.9099 11.1602 14.3999 11.1602C15.8699 11.1602 17.1749 11.8651 17.9999 12.9751C18.8099 11.8801 20.1299 11.1602 21.5999 11.1602C24.0899 11.1602 26.0999 13.1851 26.0999 15.6901C26.0999 21.3601 20.8499 24.7052 18.4949 25.5002Z" fill="white"/>
</svg>
