<svg width="36" height="36" viewBox="0 0 36 36" fill="none" xmlns="http://www.w3.org/2000/svg">
<path opacity="0.4" d="M18 33C26.2843 33 33 26.2843 33 18C33 9.71573 26.2843 3 18 3C9.71573 3 3 9.71573 3 18C3 26.2843 9.71573 33 18 33Z" fill="#87F2FC"/>
<path d="M18.4954 25.4999C18.2254 25.5899 17.7604 25.5899 17.4904 25.4999C15.1504 24.7049 9.90039 21.3599 9.90039 15.6899C9.90039 13.1849 11.9104 11.1599 14.4004 11.1599C15.8704 11.1599 17.1754 11.8649 18.0004 12.9749C18.8104 11.8799 20.1304 11.1599 21.6004 11.1599C24.0904 11.1599 26.1004 13.1849 26.1004 15.6899C26.1004 21.3599 20.8504 24.7049 18.4954 25.4999Z" fill="#87F2FC"/>
</svg>
