<svg width="36" height="36" viewBox="0 0 36 36" fill="none" xmlns="http://www.w3.org/2000/svg">
<path opacity="0.4" d="M29.0099 21.735L27.5099 19.245C27.1949 18.69 26.9099 17.64 26.9099 17.025V13.23C26.9099 8.33997 22.9349 4.34998 18.0299 4.34998C13.1249 4.34998 9.14991 8.33997 9.14991 13.23V17.025C9.14991 17.64 8.86491 18.69 8.54991 19.23L7.03491 21.735C6.43491 22.74 6.29991 23.85 6.67491 24.87C7.03491 25.875 7.88991 26.655 8.99991 27.03C11.9099 28.02 14.9699 28.5 18.0299 28.5C21.0899 28.5 24.1499 28.02 27.0599 27.045C28.1099 26.7 28.9199 25.905 29.3099 24.87C29.6999 23.835 29.5949 22.695 29.0099 21.735Z" fill="white"/>
<path d="M21.3752 4.98C20.3402 4.575 19.2152 4.35 18.0302 4.35C16.8602 4.35 15.7352 4.56 14.7002 4.98C15.3452 3.765 16.6202 3 18.0302 3C19.4552 3 20.7152 3.765 21.3752 4.98Z" fill="white"/>
<path d="M22.245 30.015C21.615 31.755 19.95 33 18 33C16.815 33 15.645 32.52 14.82 31.665C14.34 31.215 13.98 30.615 13.77 30C13.965 30.03 14.16 30.045 14.37 30.075C14.715 30.12 15.075 30.165 15.435 30.195C16.29 30.27 17.16 30.315 18.03 30.315C18.885 30.315 19.74 30.27 20.58 30.195C20.895 30.165 21.21 30.15 21.51 30.105C21.75 30.075 21.99 30.045 22.245 30.015Z" fill="white"/>
</svg>
