<svg width="36" height="36" viewBox="0 0 36 36" fill="none" xmlns="http://www.w3.org/2000/svg">
<path opacity="0.4" d="M31.3648 16.6804C31.3648 24.0154 26.0398 30.8854 18.7648 32.8954C18.2698 33.0304 17.7298 33.0304 17.2348 32.8954C9.95976 30.8854 4.63477 24.0154 4.63477 16.6804V10.0955C4.63477 8.86546 5.56479 7.47047 6.71979 7.00547L15.0748 3.58547C16.9498 2.82047 19.0648 2.82047 20.9398 3.58547L29.2948 7.00547C30.4348 7.47047 31.3798 8.86546 31.3798 10.0955L31.3648 16.6804Z" fill="white"/>
<path d="M21.75 15.75C21.75 13.68 20.07 12 18 12C15.93 12 14.25 13.68 14.25 15.75C14.25 17.43 15.36 18.825 16.875 19.305V23.25C16.875 23.865 17.385 24.375 18 24.375C18.615 24.375 19.125 23.865 19.125 23.25V19.305C20.64 18.825 21.75 17.43 21.75 15.75Z" fill="white"/>
</svg>
