<svg width="30" height="30" viewBox="0 0 30 30" fill="none" xmlns="http://www.w3.org/2000/svg">
<path opacity="0.4" d="M21.285 0H8.715C3.255 0 0 3.255 0 8.715V21.285C0 26.745 3.255 30 8.715 30H21.285C26.745 30 30 26.745 30 21.285V8.715C30 3.255 26.745 0 21.285 0Z" fill="#8C72E2"/>
<path d="M24.4653 10.3051C24.4653 10.9201 23.9703 11.4301 23.3403 11.4301H15.4653C14.8503 11.4301 14.3403 10.9201 14.3403 10.3051C14.3403 9.69005 14.8503 9.18005 15.4653 9.18005H23.3403C23.9703 9.18005 24.4653 9.69005 24.4653 10.3051Z" fill="#8C72E2"/>
<path d="M11.9553 8.85009L8.58033 12.2251C8.35533 12.4501 8.07033 12.5551 7.78533 12.5551C7.50033 12.5551 7.20033 12.4501 6.99033 12.2251L5.86533 11.1001C5.41533 10.6651 5.41533 9.94509 5.86533 9.51009C6.30033 9.07509 7.00533 9.07509 7.45533 9.51009L7.78533 9.84009L10.3653 7.26009C10.8003 6.82509 11.5053 6.82509 11.9553 7.26009C12.3903 7.69509 12.3903 8.41509 11.9553 8.85009Z" fill="#8C72E2"/>
<path d="M24.4653 20.8051C24.4653 21.4201 23.9703 21.9301 23.3403 21.9301H15.4653C14.8503 21.9301 14.3403 21.4201 14.3403 20.8051C14.3403 20.1901 14.8503 19.6801 15.4653 19.6801H23.3403C23.9703 19.6801 24.4653 20.1901 24.4653 20.8051Z" fill="#8C72E2"/>
<path d="M11.9553 19.3501L8.58033 22.7251C8.35533 22.9501 8.07033 23.0551 7.78533 23.0551C7.50033 23.0551 7.20033 22.9501 6.99033 22.7251L5.86533 21.6001C5.41533 21.1651 5.41533 20.4451 5.86533 20.0101C6.30033 19.5751 7.00533 19.5751 7.45533 20.0101L7.78533 20.3401L10.3653 17.7601C10.8003 17.3251 11.5053 17.3251 11.9553 17.7601C12.3903 18.1951 12.3903 18.9151 11.9553 19.3501Z" fill="#8C72E2"/>
</svg>
