<svg width="36" height="36" viewBox="0 0 36 36" fill="none" xmlns="http://www.w3.org/2000/svg">
<path opacity="0.4" d="M24.285 3H11.715C6.255 3 3 6.255 3 11.715V24.285C3 29.745 6.255 33 11.715 33H24.285C29.745 33 33 29.745 33 24.285V11.715C33 6.255 29.745 3 24.285 3Z" fill="white"/>
<path d="M27.4648 13.3047C27.4648 13.9197 26.9698 14.4297 26.3398 14.4297H18.4648C17.8498 14.4297 17.3398 13.9197 17.3398 13.3047C17.3398 12.6897 17.8498 12.1797 18.4648 12.1797H26.3398C26.9698 12.1797 27.4648 12.6897 27.4648 13.3047Z" fill="white"/>
<path d="M14.9548 11.8498L11.5798 15.2248C11.3548 15.4498 11.0698 15.5548 10.7848 15.5548C10.4998 15.5548 10.1998 15.4498 9.98984 15.2248L8.86484 14.0998C8.41484 13.6648 8.41484 12.9448 8.86484 12.5098C9.29984 12.0748 10.0048 12.0748 10.4548 12.5098L10.7848 12.8398L13.3648 10.2598C13.7998 9.82484 14.5048 9.82484 14.9548 10.2598C15.3898 10.6948 15.3898 11.4148 14.9548 11.8498Z" fill="white"/>
<path d="M27.4648 23.8047C27.4648 24.4197 26.9698 24.9297 26.3398 24.9297H18.4648C17.8498 24.9297 17.3398 24.4197 17.3398 23.8047C17.3398 23.1897 17.8498 22.6797 18.4648 22.6797H26.3398C26.9698 22.6797 27.4648 23.1897 27.4648 23.8047Z" fill="white"/>
<path d="M14.9548 22.3498L11.5798 25.7248C11.3548 25.9498 11.0698 26.0548 10.7848 26.0548C10.4998 26.0548 10.1998 25.9498 9.98984 25.7248L8.86484 24.5998C8.41484 24.1648 8.41484 23.4448 8.86484 23.0098C9.29984 22.5748 10.0048 22.5748 10.4548 23.0098L10.7848 23.3398L13.3648 20.7598C13.7998 20.3248 14.5048 20.3248 14.9548 20.7598C15.3898 21.1948 15.3898 21.9148 14.9548 22.3498Z" fill="white"/>
</svg>
