<svg width="34" height="34" viewBox="0 0 34 34" fill="none" xmlns="http://www.w3.org/2000/svg">
<g clip-path="url(#clip0_230_609)">
<path d="M23.5432 0C23.6223 0 23.7015 0 23.7851 0C23.9792 2.39775 23.064 4.18935 21.9517 5.48676C20.8603 6.77522 19.3658 8.02485 16.9487 7.83524C16.7874 5.47183 17.7041 3.81311 18.8149 2.51868C19.8451 1.31234 21.7337 0.238879 23.5432 0Z" fill="white"/>
<path d="M30.8603 24.9574C30.8603 24.9812 30.8603 25.0021 30.8603 25.0245C30.181 27.0819 29.2121 28.8451 28.0296 30.4814C26.9502 31.967 25.6274 33.9661 23.2654 33.9661C21.2245 33.9661 19.8689 32.6538 17.7772 32.6179C15.5646 32.5821 14.3478 33.7153 12.3248 34.0004C12.0934 34.0004 11.8619 34.0004 11.635 34.0004C10.1495 33.7854 8.9506 32.609 8.0772 31.5489C5.50178 28.4166 3.51162 24.3706 3.14136 19.1929C3.14136 18.6853 3.14136 18.1792 3.14136 17.6715C3.29812 13.9659 5.09868 10.9531 7.49195 9.4929C8.75502 8.71655 10.4914 8.05515 12.4248 8.35076C13.2534 8.47916 14.0999 8.76283 14.842 9.04351C15.5452 9.31374 16.4245 9.793 17.2576 9.76761C17.822 9.75119 18.3834 9.45707 18.9522 9.24955C20.6184 8.64787 22.2517 7.9581 24.4046 8.28208C26.992 8.67325 28.8284 9.82286 29.963 11.5965C27.7743 12.9895 26.0439 15.0887 26.3395 18.6733C26.6023 21.9296 28.4954 23.8346 30.8603 24.9574Z" fill="white"/>
</g>
<defs>
<clipPath id="clip0_230_609">
<rect width="34" height="34" fill="white"/>
</clipPath>
</defs>
</svg>
