<svg width="392" height="84" viewBox="0 0 392 84" fill="none" xmlns="http://www.w3.org/2000/svg">
<g filter="url(#filter0_b_1689_19930)">
<rect width="392" height="84" rx="16" fill="black" fill-opacity="0.4"/>
<path d="M27.76 38.148L29.636 41.536L26.528 42.544L29.636 43.496L27.592 47.052L25.156 44.644L25.94 47.92H22.048L22.832 44.644L20.452 47.08L18.352 43.468L21.46 42.46L18.408 41.564L20.284 38.176L22.86 40.5L21.992 37.168H25.968L25.156 40.5L27.76 38.148ZM45.6953 38.148L47.5713 41.536L44.4633 42.544L47.5713 43.496L45.5273 47.052L43.0913 44.644L43.8753 47.92H39.9833L40.7673 44.644L38.3873 47.08L36.2873 43.468L39.3953 42.46L36.3433 41.564L38.2193 38.176L40.7953 40.5L39.9273 37.168H43.9033L43.0913 40.5L45.6953 38.148ZM63.6306 38.148L65.5066 41.536L62.3986 42.544L65.5066 43.496L63.4626 47.052L61.0266 44.644L61.8106 47.92H57.9186L58.7026 44.644L56.3226 47.08L54.2226 43.468L57.3306 42.46L54.2786 41.564L56.1546 38.176L58.7306 40.5L57.8626 37.168H61.8386L61.0266 40.5L63.6306 38.148ZM81.5659 38.148L83.4419 41.536L80.3339 42.544L83.4419 43.496L81.3979 47.052L78.9619 44.644L79.7459 47.92H75.8539L76.6379 44.644L74.2579 47.08L72.1579 43.468L75.2659 42.46L72.2139 41.564L74.0899 38.176L76.6659 40.5L75.7979 37.168H79.7739L78.9619 40.5L81.5659 38.148ZM99.5012 38.148L101.377 41.536L98.2692 42.544L101.377 43.496L99.3333 47.052L96.8972 44.644L97.6812 47.92H93.7892L94.5732 44.644L92.1932 47.08L90.0932 43.468L93.2012 42.46L90.1492 41.564L92.0252 38.176L94.6012 40.5L93.7332 37.168H97.7092L96.8972 40.5L99.5012 38.148ZM117.437 38.148L119.313 41.536L116.205 42.544L119.313 43.496L117.269 47.052L114.833 44.644L115.617 47.92H111.725L112.509 44.644L110.129 47.08L108.029 43.468L111.137 42.46L108.085 41.564L109.961 38.176L112.537 40.5L111.669 37.168H115.645L114.833 40.5L117.437 38.148ZM135.372 38.148L137.248 41.536L134.14 42.544L137.248 43.496L135.204 47.052L132.768 44.644L133.552 47.92H129.66L130.444 44.644L128.064 47.08L125.964 43.468L129.072 42.46L126.02 41.564L127.896 38.176L130.472 40.5L129.604 37.168H133.58L132.768 40.5L135.372 38.148ZM153.307 38.148L155.183 41.536L152.075 42.544L155.183 43.496L153.139 47.052L150.703 44.644L151.487 47.92H147.595L148.379 44.644L145.999 47.08L143.899 43.468L147.007 42.46L143.955 41.564L145.831 38.176L148.407 40.5L147.539 37.168H151.515L150.703 40.5L153.307 38.148ZM171.242 38.148L173.118 41.536L170.01 42.544L173.118 43.496L171.074 47.052L168.638 44.644L169.422 47.92H165.53L166.314 44.644L163.934 47.08L161.834 43.468L164.942 42.46L161.89 41.564L163.766 38.176L166.342 40.5L165.474 37.168H169.45L168.638 40.5L171.242 38.148ZM189.178 38.148L191.054 41.536L187.946 42.544L191.054 43.496L189.01 47.052L186.574 44.644L187.358 47.92H183.466L184.25 44.644L181.87 47.08L179.77 43.468L182.878 42.46L179.826 41.564L181.702 38.176L184.278 40.5L183.41 37.168H187.386L186.574 40.5L189.178 38.148ZM207.113 38.148L208.989 41.536L205.881 42.544L208.989 43.496L206.945 47.052L204.509 44.644L205.293 47.92H201.401L202.185 44.644L199.805 47.08L197.705 43.468L200.813 42.46L197.761 41.564L199.637 38.176L202.213 40.5L201.345 37.168H205.321L204.509 40.5L207.113 38.148ZM225.048 38.148L226.924 41.536L223.816 42.544L226.924 43.496L224.88 47.052L222.444 44.644L223.228 47.92H219.336L220.12 44.644L217.74 47.08L215.64 43.468L218.748 42.46L215.696 41.564L217.572 38.176L220.148 40.5L219.28 37.168H223.256L222.444 40.5L225.048 38.148Z" fill="white"/>
<g filter="url(#filter1_b_1689_19930)">
<rect x="245" y="8" width="139" height="68" rx="16" fill="black" fill-opacity="0.4"/>
<path d="M275.54 49.14C273.847 49.14 272.447 48.7467 271.34 47.96C270.247 47.16 269.653 45.9933 269.56 44.46H274.28C274.347 45.2733 274.707 45.68 275.36 45.68C275.6 45.68 275.8 45.6267 275.96 45.52C276.133 45.4 276.22 45.22 276.22 44.98C276.22 44.6467 276.04 44.38 275.68 44.18C275.32 43.9667 274.76 43.7267 274 43.46C273.093 43.14 272.34 42.8267 271.74 42.52C271.153 42.2133 270.647 41.7667 270.22 41.18C269.793 40.5933 269.587 39.84 269.6 38.92C269.6 38 269.833 37.22 270.3 36.58C270.78 35.9267 271.427 35.4333 272.24 35.1C273.067 34.7667 273.993 34.6 275.02 34.6C276.753 34.6 278.127 35 279.14 35.8C280.167 36.6 280.707 37.7267 280.76 39.18H275.98C275.967 38.78 275.867 38.4933 275.68 38.32C275.493 38.1467 275.267 38.06 275 38.06C274.813 38.06 274.66 38.1267 274.54 38.26C274.42 38.38 274.36 38.5533 274.36 38.78C274.36 39.1 274.533 39.3667 274.88 39.58C275.24 39.78 275.807 40.0267 276.58 40.32C277.473 40.6533 278.207 40.9733 278.78 41.28C279.367 41.5867 279.873 42.0133 280.3 42.56C280.727 43.1067 280.94 43.7933 280.94 44.62C280.94 45.4867 280.727 46.2667 280.3 46.96C279.873 47.64 279.253 48.1733 278.44 48.56C277.627 48.9467 276.66 49.14 275.54 49.14ZM291.58 46.86H286.86L286.16 49H281.5L286.68 34.84H291.8L296.96 49H292.28L291.58 46.86ZM290.5 43.52L289.22 39.58L287.94 43.52H290.5ZM307.969 34.84V38.36H302.409V40.32H306.409V43.66H302.409V49H297.969V34.84H307.969ZM313.913 38.38V40.12H318.313V43.46H313.913V45.46H318.913V49H309.473V34.84H318.913V38.38H313.913Z" fill="#1AC295"/>
<path d="M344.761 28.8007L353.611 31.77C354.602 32.1008 355.271 33.0108 355.277 34.0306L355.333 42.8848C355.351 45.5691 354.372 48.1722 352.58 50.2119C351.756 51.148 350.7 51.9521 349.35 52.6713L344.593 55.2143C344.444 55.2927 344.281 55.3333 344.115 55.3346C343.95 55.3359 343.785 55.2967 343.638 55.2195L338.836 52.7353C337.472 52.028 336.407 51.2356 335.574 50.3126C333.753 48.2938 332.741 45.7024 332.723 43.0143L332.667 34.1666C332.661 33.1455 333.319 32.2289 334.304 31.885L343.121 28.8099C343.644 28.6242 344.228 28.6203 344.761 28.8007ZM348.993 38.2928C348.597 37.9124 347.96 37.915 347.569 38.3007L343.078 42.7278L341.239 40.9601C340.843 40.5796 340.206 40.5835 339.814 40.9692C339.424 41.3549 339.428 41.9747 339.824 42.3552L342.378 44.8132C342.577 45.0041 342.835 45.0982 343.092 45.0957C343.35 45.0943 343.606 44.9976 343.802 44.8041L349.001 39.6788C349.392 39.2931 349.388 38.6733 348.993 38.2928Z" fill="#1AC295"/>
</g>
</g>
<defs>
<filter id="filter0_b_1689_19930" x="-4" y="-4" width="400" height="92" filterUnits="userSpaceOnUse" color-interpolation-filters="sRGB">
<feFlood flood-opacity="0" result="BackgroundImageFix"/>
<feGaussianBlur in="BackgroundImageFix" stdDeviation="2"/>
<feComposite in2="SourceAlpha" operator="in" result="effect1_backgroundBlur_1689_19930"/>
<feBlend mode="normal" in="SourceGraphic" in2="effect1_backgroundBlur_1689_19930" result="shape"/>
</filter>
<filter id="filter1_b_1689_19930" x="241" y="4" width="147" height="76" filterUnits="userSpaceOnUse" color-interpolation-filters="sRGB">
<feFlood flood-opacity="0" result="BackgroundImageFix"/>
<feGaussianBlur in="BackgroundImageFix" stdDeviation="2"/>
<feComposite in2="SourceAlpha" operator="in" result="effect1_backgroundBlur_1689_19930"/>
<feBlend mode="normal" in="SourceGraphic" in2="effect1_backgroundBlur_1689_19930" result="shape"/>
</filter>
</defs>
</svg>
