<svg width="24" height="24" viewBox="0 0 24 24" fill="none" xmlns="http://www.w3.org/2000/svg">
<g id="Icon/Download">
<g id="Vector">
<path fill-rule="evenodd" clip-rule="evenodd" d="M12.0205 3.25C12.4347 3.25 12.7705 3.58579 12.7705 4V14.6076L14.5067 12.8636C14.799 12.5701 15.2738 12.5691 15.5674 12.8613C15.8609 13.1535 15.862 13.6284 15.5697 13.922L12.552 16.9531C12.4113 17.0944 12.2201 17.1739 12.0207 17.1739C11.8213 17.1739 11.63 17.0946 11.4893 16.9533L8.46874 13.9222C8.17636 13.6288 8.17719 13.1539 8.4706 12.8615C8.764 12.5692 9.23887 12.57 9.53126 12.8634L11.2705 14.6088V4C11.2705 3.58579 11.6063 3.25 12.0205 3.25Z" fill="white"/>
<path fill-rule="evenodd" clip-rule="evenodd" d="M7.76253 3.95319C7.98686 4.3014 7.88643 4.76554 7.53822 4.98986C5.25754 6.45916 3.75 9.01894 3.75 11.9307C3.75 16.4866 7.44334 20.1807 12 20.1807C16.5566 20.1807 20.25 16.4866 20.25 11.9307C20.25 9.01894 18.7424 6.45916 16.4618 4.98986C16.1136 4.76553 16.0132 4.30139 16.2375 3.95319C16.4618 3.60498 16.926 3.50456 17.2742 3.72889C19.9654 5.46267 21.75 8.48793 21.75 11.9307C21.75 17.3149 17.3852 21.6807 12 21.6807C6.61482 21.6807 2.25 17.3149 2.25 11.9307C2.25 8.48793 4.03462 5.46267 6.72586 3.72889C7.07407 3.50456 7.5382 3.60498 7.76253 3.95319Z" fill="white"/>
</g>
</g>
</svg>
