<svg width="35" height="34" viewBox="0 0 35 34" fill="none" xmlns="http://www.w3.org/2000/svg">
<path d="M9.11173 2.60078C7.94783 1.95748 6.58127 1.97235 5.4248 2.61008L18.9789 15.1137L23.5322 10.5603L9.11173 2.60078Z" fill="white"/>
<path d="M4.07528 3.88867C3.74433 4.42972 3.55469 5.04886 3.55469 5.70518V28.2878C3.55469 28.9237 3.7276 29.5298 4.03996 30.0597L17.6703 16.4294L4.07528 3.88867Z" fill="white"/>
<path d="M29.5766 13.8917L25.2334 11.4951L20.3528 16.3738L26.334 21.8903L29.5785 20.0998C30.7461 19.4528 31.4452 18.2926 31.4452 16.9948C31.4433 15.6971 30.7461 14.5369 29.5766 13.8917Z" fill="white"/>
<path d="M19.0342 17.6904L5.3667 31.3579C5.95981 31.6963 6.61055 31.8748 7.26501 31.8748C7.89716 31.8748 8.53303 31.7149 9.11498 31.3932L24.6157 22.8387L19.0342 17.6904Z" fill="white"/>
</svg>
