<svg width="49" height="49" viewBox="0 0 49 49" fill="none" xmlns="http://www.w3.org/2000/svg">
<path opacity="0.4" fill-rule="evenodd" clip-rule="evenodd" d="M24.1011 5.91504C13.6251 5.91504 5.10107 14.439 5.10107 24.915C5.10107 35.391 13.6251 43.915 24.1011 43.915C34.5771 43.915 43.1011 35.391 43.1011 24.915C43.1011 14.439 34.5771 5.91504 24.1011 5.91504Z" fill="white"/>
<path d="M25.7569 32.975V30.631C29.5409 30.341 32.9249 29.037 32.9249 26.515C32.9249 25.525 32.3929 24.147 29.8589 23.209C29.0829 22.923 28.2169 23.315 27.9309 24.093C27.6429 24.869 28.0389 25.733 28.8149 26.021C29.3009 26.201 29.6029 26.377 29.7769 26.505C29.2709 26.873 27.8869 27.413 25.7569 27.613V20.415H29.2989C30.1269 20.415 30.7989 19.743 30.7989 18.915C30.7989 18.087 30.1269 17.415 29.2989 17.415H18.9009C18.0729 17.415 17.4009 18.087 17.4009 18.915C17.4009 19.743 18.0729 20.415 18.9009 20.415H22.7569V27.641C20.4429 27.469 18.9529 26.891 18.4229 26.505C18.5949 26.377 18.8969 26.201 19.3829 26.021C20.1609 25.733 20.5569 24.869 20.2689 24.093C19.9829 23.317 19.1189 22.925 18.3409 23.209C15.8049 24.149 15.2729 25.525 15.2729 26.515C15.2729 29.107 18.8469 30.405 22.7569 30.645V32.975C22.7569 33.803 23.4289 34.475 24.2569 34.475C25.0849 34.475 25.7569 33.803 25.7569 32.975Z" fill="white"/>
</svg>
